<svg id="Layer_1" data-name="Layer 1" xmlns="http://www.w3.org/2000/svg" viewBox="0 0 240 240"><defs><style>.cls-1{fill:#eba569;}</style></defs><title>logo-mini</title><path class="cls-1" d="M214.06,83.82a146.49,146.49,0,0,0-22.91,2.34,128.8,128.8,0,0,0-27.24-40.4,93.79,93.79,0,0,0-43.07,18.58A110.59,110.59,0,0,0,77,45.77,126.64,126.64,0,0,0,49.57,86.53,151.64,151.64,0,0,0,3,85.08c.45,8.56,3.36,46.25,34.63,76.66,33.83,32.89,75.54,32.65,83.19,32.47,8.92.08,45.51-.63,77.34-28.68,35.32-31.13,38.36-72.69,38.78-80.44A146.49,146.49,0,0,0,214.06,83.82ZM84,175.09a94.26,94.26,0,0,1-34.45-20.92,136.86,136.86,0,0,1,4.69-42.78l-13-3.22-4.69,30.48A106,106,0,0,1,18.72,96.91a135.12,135.12,0,0,1,92.35,34.88A192.35,192.35,0,0,0,84,175.09Zm106.78-20.56a94.36,94.36,0,0,1-34.09,20.56,147.26,147.26,0,0,0-21.28-36.43L126,148a110,110,0,0,1,17.86,31,91.7,91.7,0,0,1-47.26,0,138.46,138.46,0,0,1,77.74-74.85l-5.59-11.72A179.82,179.82,0,0,0,120,122.17,127.64,127.64,0,0,0,62.37,89.41,153.69,153.69,0,0,1,81.31,60.56,81.3,81.3,0,0,1,96.72,65.3a82.26,82.26,0,0,1,24.13,15.64,66.3,66.3,0,0,1,38.38-20.38,124.65,124.65,0,0,1,31.56,94Zm13.53-15.87a125.31,125.31,0,0,0-7.94-40,91.91,91.91,0,0,1,26.51-1.26,85.63,85.63,0,0,1-18.58,41.3Z"/></svg>