<svg xmlns="http://www.w3.org/2000/svg" viewBox="0 0 763.82 155.58"><defs><style>.a{fill:#eba569;}</style></defs><title>Cosmetic logo</title><path class="a" d="M178,49.44a118.39,118.39,0,0,0-18.51,1.9,104.1,104.1,0,0,0-22-32.65,75.8,75.8,0,0,0-34.81,15,89.38,89.38,0,0,0-35.46-15A102.35,102.35,0,0,0,45.05,51.62,122.56,122.56,0,0,0,7.44,50.46c.36,6.92,2.72,37.38,28,62,27.34,26.58,61,26.39,67.24,26.24,7.21.06,36.79-.51,62.5-23.18,28.54-25.16,31-58.75,31.34-65A118.39,118.39,0,0,0,178,49.44ZM72.9,123.2a76.19,76.19,0,0,1-27.84-16.91,110.61,110.61,0,0,1,3.79-34.57l-10.5-2.6L34.56,93.75A85.7,85.7,0,0,1,20.13,60,109.2,109.2,0,0,1,94.76,88.21a155.46,155.46,0,0,0-21.87,35Zm86.3-16.62a76.26,76.26,0,0,1-27.55,16.62,119,119,0,0,0-17.2-29.45l-7.58,7.58a88.88,88.88,0,0,1,14.43,25.07,74.12,74.12,0,0,1-38.19,0,111.91,111.91,0,0,1,62.83-60.5l-4.52-9.48a145.34,145.34,0,0,0-39.43,24A103.16,103.16,0,0,0,55.4,54,124.21,124.21,0,0,1,70.71,30.63a65.71,65.71,0,0,1,12.46,3.83,66.48,66.48,0,0,1,19.5,12.64,53.58,53.58,0,0,1,31-16.47,100.74,100.74,0,0,1,25.51,75.95Zm10.93-12.83a101.28,101.28,0,0,0-6.41-32.36,74.28,74.28,0,0,1,21.43-1,69.21,69.21,0,0,1-15,33.38Z"/><path d="M225.43,133V24.87h30.36c31.39,0,47.83,5.63,47.83,24.43,0,13.18-10.22,23.1-34.95,26.8,22.07,0,40.87,8.59,40.87,26.8,0,20.73-15,30.06-55.53,30.06ZM244.83,26.8v49h7.7c19.7,0,31.54-6.81,31.54-24.43,0-18.66-11.11-24.58-30.36-24.58Zm0,50.79V131.2h9.33c22.07,0,35.84-6.52,35.84-26.36,0-18.21-13.18-27.25-35.24-27.25Z"/><path d="M360.78,134.9c-21.18,0-38.06-14.66-38.06-38.21,0-23,15.25-38.8,37.91-38.8,20.73,0,33.91,14.07,33.91,33.91v.89h-52c.89,28.43,11.11,38.06,25.62,38.06,12.88,0,22.51-8.89,25.32-23.69l1.48.3C391.43,126.31,378.4,134.9,360.78,134.9ZM342.56,90.77h34.36c-.74-17.62-5.18-31-16.88-31-12.59,0-17.47,14.36-17.47,29.17Z"/><path d="M432.3,133H413.64V24.87H432.3Z"/><path d="M474.5,133H455.84V24.87H474.5Z"/><path d="M496.12,36.57a11.12,11.12,0,0,1,11.25-11.11,11,11,0,0,1,11.11,11.11A11.16,11.16,0,0,1,507.38,48,11.28,11.28,0,0,1,496.12,36.57ZM516.71,133H498V59.82h18.66Z"/><path d="M586.6,119.94c0-7.85-5.18-11.85-14.51-14.07l-13.62-3.41c-13.18-3.26-21.33-10.66-21.33-21.92,0-12.59,10.51-22.66,28-22.66,17.18,0,28.58,6.66,31.84,18.51l-14.81,2.22c-2.22-12.14-8.74-18.81-18.07-18.81-10.37,0-14.66,5.18-14.66,12,0,7.26,5.18,11.25,14.22,13.48l13.18,3.26c14.66,3.85,22.07,10.07,22.07,22.66,0,14.22-12.44,23.69-30.21,23.69-17.18,0-31.54-7.4-34.8-20.88L549,111.5C550.91,125.27,559.5,133,571.05,133,580.24,133,586.6,127.64,586.6,119.94Z"/><path d="M663.61,119.94c0-7.85-5.18-11.85-14.51-14.07l-13.62-3.41c-13.18-3.26-21.33-10.66-21.33-21.92,0-12.59,10.51-22.66,28-22.66,17.18,0,28.58,6.66,31.84,18.51l-14.81,2.22c-2.22-12.14-8.74-18.81-18.07-18.81-10.37,0-14.66,5.18-14.66,12,0,7.26,5.18,11.25,14.22,13.48l13.18,3.26c14.66,3.85,22.07,10.07,22.07,22.66,0,14.22-12.44,23.69-30.21,23.69-17.18,0-31.54-7.4-34.8-20.88L626,111.5c1.92,13.77,10.51,21.47,22.06,21.47C657.24,133,663.61,127.64,663.61,119.94Z"/><path d="M738.09,119.94c-4.59,9.18-13.18,15-25.32,15-12.59,0-24.43-6.22-24.43-20,0-16.29,15.25-22.51,31.54-22.51a46.82,46.82,0,0,1,17.77,3.26V78.33c0-15.4-5.33-18.51-12.59-18.51-9.18,0-14.36,7.11-17.18,23.1l-16.44-1.33c5.18-15.1,18.07-23.69,34.21-23.69,18.36,0,30.65,6.81,30.65,30.65V133H738.09Zm-.44-9.48V97a32.55,32.55,0,0,0-12.29-2.52c-10.66,0-18.07,6.52-18.07,18.81,0,10.66,5.78,17.18,14.51,17.18C729.06,130.46,737.65,123.65,737.65,110.47Z"/></svg>